<mxfile host="app.diagrams.net" agent="Mozilla/5.0 (Windows NT 10.0; Win64; x64) AppleWebKit/537.36 (KHTML, like Gecko) Chrome/135.0.0.0 Safari/537.36" version="26.2.5">
  <diagram name="Page-1" id="2uJ53USd-3HnuHPdExgX">
    <mxGraphModel dx="985" dy="536" grid="1" gridSize="10" guides="1" tooltips="1" connect="1" arrows="1" fold="1" page="1" pageScale="1" pageWidth="850" pageHeight="1100" math="0" shadow="0">
      <root>
        <mxCell id="0" />
        <mxCell id="1" parent="0" />
        <mxCell id="ThsJf-D5PIDuEEWvj5GU-15" style="edgeStyle=orthogonalEdgeStyle;rounded=0;orthogonalLoop=1;jettySize=auto;html=1;exitX=0.5;exitY=1;exitDx=0;exitDy=0;entryX=0.5;entryY=0;entryDx=0;entryDy=0;startArrow=classicThin;startFill=1;endArrow=none;" edge="1" parent="1">
          <mxGeometry relative="1" as="geometry">
            <mxPoint x="360" y="460" as="sourcePoint" />
            <mxPoint x="360" y="520" as="targetPoint" />
          </mxGeometry>
        </mxCell>
        <mxCell id="ThsJf-D5PIDuEEWvj5GU-16" value="message_queue" style="edgeLabel;html=1;align=center;verticalAlign=middle;resizable=0;points=[];" vertex="1" connectable="0" parent="ThsJf-D5PIDuEEWvj5GU-15">
          <mxGeometry x="-0.0111" y="-1" relative="1" as="geometry">
            <mxPoint as="offset" />
          </mxGeometry>
        </mxCell>
        <mxCell id="ThsJf-D5PIDuEEWvj5GU-5" value="main" style="swimlane;childLayout=stackLayout;horizontal=1;startSize=50;horizontalStack=0;rounded=1;fontSize=14;fontStyle=0;strokeWidth=2;resizeParent=0;resizeLast=1;shadow=0;dashed=0;align=center;arcSize=4;whiteSpace=wrap;html=1;" vertex="1" parent="1">
          <mxGeometry x="330" y="340" width="160" height="120" as="geometry" />
        </mxCell>
        <mxCell id="ThsJf-D5PIDuEEWvj5GU-6" value="+Sets up all Multiprocessing processes" style="align=left;strokeColor=none;fillColor=none;spacingLeft=4;spacingRight=4;fontSize=12;verticalAlign=top;resizable=0;rotatable=0;part=1;html=1;whiteSpace=wrap;" vertex="1" parent="ThsJf-D5PIDuEEWvj5GU-5">
          <mxGeometry y="50" width="160" height="70" as="geometry" />
        </mxCell>
        <mxCell id="ThsJf-D5PIDuEEWvj5GU-40" style="edgeStyle=orthogonalEdgeStyle;rounded=0;orthogonalLoop=1;jettySize=auto;html=1;exitX=0.5;exitY=0;exitDx=0;exitDy=0;entryX=0.5;entryY=1;entryDx=0;entryDy=0;endArrow=none;startFill=0;" edge="1" parent="1" source="ThsJf-D5PIDuEEWvj5GU-9" target="ThsJf-D5PIDuEEWvj5GU-39">
          <mxGeometry relative="1" as="geometry" />
        </mxCell>
        <mxCell id="ThsJf-D5PIDuEEWvj5GU-9" value="twitch_event" style="swimlane;childLayout=stackLayout;horizontal=1;startSize=50;horizontalStack=0;rounded=1;fontSize=14;fontStyle=0;strokeWidth=2;resizeParent=0;resizeLast=1;shadow=0;dashed=0;align=center;arcSize=4;whiteSpace=wrap;html=1;" vertex="1" parent="1">
          <mxGeometry x="580" y="340" width="160" height="120" as="geometry" />
        </mxCell>
        <mxCell id="ThsJf-D5PIDuEEWvj5GU-10" value="+Listens to twitch events, sends them to input_msg_queue" style="align=left;strokeColor=none;fillColor=none;spacingLeft=4;spacingRight=4;fontSize=12;verticalAlign=top;resizable=0;rotatable=0;part=1;html=1;whiteSpace=wrap;" vertex="1" parent="ThsJf-D5PIDuEEWvj5GU-9">
          <mxGeometry y="50" width="160" height="70" as="geometry" />
        </mxCell>
        <mxCell id="ThsJf-D5PIDuEEWvj5GU-11" style="edgeStyle=orthogonalEdgeStyle;rounded=0;orthogonalLoop=1;jettySize=auto;html=1;exitX=1;exitY=0.25;exitDx=0;exitDy=0;entryX=0;entryY=0.25;entryDx=0;entryDy=0;endArrow=none;endFill=1;startArrow=classicThin;startFill=1;" edge="1" parent="1" source="ThsJf-D5PIDuEEWvj5GU-6" target="ThsJf-D5PIDuEEWvj5GU-10">
          <mxGeometry relative="1" as="geometry" />
        </mxCell>
        <mxCell id="ThsJf-D5PIDuEEWvj5GU-12" value="message_queue" style="edgeLabel;html=1;align=center;verticalAlign=middle;resizable=0;points=[];" vertex="1" connectable="0" parent="ThsJf-D5PIDuEEWvj5GU-11">
          <mxGeometry x="0.02" y="4" relative="1" as="geometry">
            <mxPoint y="-13" as="offset" />
          </mxGeometry>
        </mxCell>
        <mxCell id="ThsJf-D5PIDuEEWvj5GU-17" style="edgeStyle=orthogonalEdgeStyle;rounded=0;orthogonalLoop=1;jettySize=auto;html=1;exitX=0.75;exitY=0;exitDx=0;exitDy=0;entryX=0.75;entryY=1;entryDx=0;entryDy=0;startArrow=classicThin;startFill=1;endArrow=none;" edge="1" parent="1" source="ThsJf-D5PIDuEEWvj5GU-13" target="ThsJf-D5PIDuEEWvj5GU-6">
          <mxGeometry relative="1" as="geometry" />
        </mxCell>
        <mxCell id="ThsJf-D5PIDuEEWvj5GU-18" value="speaking_queue" style="edgeLabel;html=1;align=center;verticalAlign=middle;resizable=0;points=[];" vertex="1" connectable="0" parent="ThsJf-D5PIDuEEWvj5GU-17">
          <mxGeometry x="0.5222" y="1" relative="1" as="geometry">
            <mxPoint y="16" as="offset" />
          </mxGeometry>
        </mxCell>
        <mxCell id="ThsJf-D5PIDuEEWvj5GU-13" value="discord_app" style="swimlane;childLayout=stackLayout;horizontal=1;startSize=50;horizontalStack=0;rounded=1;fontSize=14;fontStyle=0;strokeWidth=2;resizeParent=0;resizeLast=1;shadow=0;dashed=0;align=center;arcSize=4;whiteSpace=wrap;html=1;" vertex="1" parent="1">
          <mxGeometry x="330" y="520" width="160" height="130" as="geometry" />
        </mxCell>
        <mxCell id="ThsJf-D5PIDuEEWvj5GU-14" value="+Creates Discord Bot connection&lt;div&gt;+Listens to, and speaks from, Discord Voice Channel&lt;/div&gt;" style="align=left;strokeColor=none;fillColor=none;spacingLeft=4;spacingRight=4;fontSize=12;verticalAlign=top;resizable=0;rotatable=0;part=1;html=1;whiteSpace=wrap;" vertex="1" parent="ThsJf-D5PIDuEEWvj5GU-13">
          <mxGeometry y="50" width="160" height="80" as="geometry" />
        </mxCell>
        <mxCell id="ThsJf-D5PIDuEEWvj5GU-19" value="app" style="swimlane;childLayout=stackLayout;horizontal=1;startSize=50;horizontalStack=0;rounded=1;fontSize=14;fontStyle=0;strokeWidth=2;resizeParent=0;resizeLast=1;shadow=0;dashed=0;align=center;arcSize=4;whiteSpace=wrap;html=1;" vertex="1" parent="1">
          <mxGeometry x="330" y="140" width="160" height="120" as="geometry" />
        </mxCell>
        <mxCell id="ThsJf-D5PIDuEEWvj5GU-20" value="+Does the main &#39;thinking&#39;" style="align=left;strokeColor=none;fillColor=none;spacingLeft=4;spacingRight=4;fontSize=12;verticalAlign=top;resizable=0;rotatable=0;part=1;html=1;whiteSpace=wrap;" vertex="1" parent="ThsJf-D5PIDuEEWvj5GU-19">
          <mxGeometry y="50" width="160" height="70" as="geometry" />
        </mxCell>
        <mxCell id="ThsJf-D5PIDuEEWvj5GU-21" style="edgeStyle=orthogonalEdgeStyle;rounded=0;orthogonalLoop=1;jettySize=auto;html=1;exitX=0.5;exitY=1;exitDx=0;exitDy=0;entryX=0.188;entryY=0;entryDx=0;entryDy=0;startArrow=classicThin;startFill=1;entryPerimeter=0;endArrow=none;" edge="1" parent="1" target="ThsJf-D5PIDuEEWvj5GU-5">
          <mxGeometry relative="1" as="geometry">
            <mxPoint x="360" y="260" as="sourcePoint" />
            <mxPoint x="360" y="320" as="targetPoint" />
          </mxGeometry>
        </mxCell>
        <mxCell id="ThsJf-D5PIDuEEWvj5GU-22" value="input_msg_queue" style="edgeLabel;html=1;align=center;verticalAlign=middle;resizable=0;points=[];" vertex="1" connectable="0" parent="ThsJf-D5PIDuEEWvj5GU-21">
          <mxGeometry x="-0.0111" y="-1" relative="1" as="geometry">
            <mxPoint y="-20" as="offset" />
          </mxGeometry>
        </mxCell>
        <mxCell id="ThsJf-D5PIDuEEWvj5GU-23" style="edgeStyle=orthogonalEdgeStyle;rounded=0;orthogonalLoop=1;jettySize=auto;html=1;exitX=0.75;exitY=0;exitDx=0;exitDy=0;entryX=0.75;entryY=1;entryDx=0;entryDy=0;startArrow=classicThin;startFill=1;endArrow=none;" edge="1" parent="1">
          <mxGeometry relative="1" as="geometry">
            <mxPoint x="460" y="340.0000000000001" as="sourcePoint" />
            <mxPoint x="460" y="260" as="targetPoint" />
          </mxGeometry>
        </mxCell>
        <mxCell id="ThsJf-D5PIDuEEWvj5GU-24" value="speaking_queue" style="edgeLabel;html=1;align=center;verticalAlign=middle;resizable=0;points=[];" vertex="1" connectable="0" parent="ThsJf-D5PIDuEEWvj5GU-23">
          <mxGeometry x="0.5222" y="1" relative="1" as="geometry">
            <mxPoint y="1" as="offset" />
          </mxGeometry>
        </mxCell>
        <mxCell id="ThsJf-D5PIDuEEWvj5GU-29" value="play" style="swimlane;childLayout=stackLayout;horizontal=1;startSize=50;horizontalStack=0;rounded=1;fontSize=14;fontStyle=0;strokeWidth=2;resizeParent=0;resizeLast=1;shadow=0;dashed=0;align=center;arcSize=4;whiteSpace=wrap;html=1;" vertex="1" parent="1">
          <mxGeometry x="90" y="340" width="160" height="120" as="geometry" />
        </mxCell>
        <mxCell id="ThsJf-D5PIDuEEWvj5GU-30" value="+Dabi does actions&lt;div&gt;+IN PROGRESS&lt;/div&gt;" style="align=left;strokeColor=none;fillColor=none;spacingLeft=4;spacingRight=4;fontSize=12;verticalAlign=top;resizable=0;rotatable=0;part=1;html=1;whiteSpace=wrap;" vertex="1" parent="ThsJf-D5PIDuEEWvj5GU-29">
          <mxGeometry y="50" width="160" height="70" as="geometry" />
        </mxCell>
        <mxCell id="ThsJf-D5PIDuEEWvj5GU-34" style="edgeStyle=orthogonalEdgeStyle;rounded=0;orthogonalLoop=1;jettySize=auto;html=1;exitX=0.5;exitY=1;exitDx=0;exitDy=0;entryX=0.5;entryY=0;entryDx=0;entryDy=0;" edge="1" parent="1" source="ThsJf-D5PIDuEEWvj5GU-20" target="ThsJf-D5PIDuEEWvj5GU-5">
          <mxGeometry relative="1" as="geometry" />
        </mxCell>
        <mxCell id="ThsJf-D5PIDuEEWvj5GU-35" value="action_queue" style="edgeLabel;html=1;align=center;verticalAlign=middle;resizable=0;points=[];" vertex="1" connectable="0" parent="ThsJf-D5PIDuEEWvj5GU-34">
          <mxGeometry x="-0.0552" y="2" relative="1" as="geometry">
            <mxPoint x="-2" y="22" as="offset" />
          </mxGeometry>
        </mxCell>
        <mxCell id="ThsJf-D5PIDuEEWvj5GU-36" style="edgeStyle=orthogonalEdgeStyle;rounded=0;orthogonalLoop=1;jettySize=auto;html=1;exitX=0;exitY=0.25;exitDx=0;exitDy=0;entryX=1;entryY=0.25;entryDx=0;entryDy=0;" edge="1" parent="1" source="ThsJf-D5PIDuEEWvj5GU-6" target="ThsJf-D5PIDuEEWvj5GU-30">
          <mxGeometry relative="1" as="geometry">
            <mxPoint x="280" y="370" as="sourcePoint" />
            <mxPoint x="280" y="450" as="targetPoint" />
          </mxGeometry>
        </mxCell>
        <mxCell id="ThsJf-D5PIDuEEWvj5GU-37" value="action_queue" style="edgeLabel;html=1;align=center;verticalAlign=middle;resizable=0;points=[];" vertex="1" connectable="0" parent="ThsJf-D5PIDuEEWvj5GU-36">
          <mxGeometry x="-0.0552" y="2" relative="1" as="geometry">
            <mxPoint y="-19" as="offset" />
          </mxGeometry>
        </mxCell>
        <mxCell id="ThsJf-D5PIDuEEWvj5GU-38" value="twitch_wrappers" style="swimlane;childLayout=stackLayout;horizontal=1;startSize=50;horizontalStack=0;rounded=1;fontSize=14;fontStyle=0;strokeWidth=2;resizeParent=0;resizeLast=1;shadow=0;dashed=0;align=center;arcSize=4;whiteSpace=wrap;html=1;" vertex="1" parent="1">
          <mxGeometry x="580" y="140" width="160" height="120" as="geometry">
            <mxRectangle x="580" y="140" width="140" height="50" as="alternateBounds" />
          </mxGeometry>
        </mxCell>
        <mxCell id="ThsJf-D5PIDuEEWvj5GU-39" value="+updates keys, tokens, etc." style="align=left;strokeColor=none;fillColor=none;spacingLeft=4;spacingRight=4;fontSize=12;verticalAlign=top;resizable=0;rotatable=0;part=1;html=1;whiteSpace=wrap;" vertex="1" parent="ThsJf-D5PIDuEEWvj5GU-38">
          <mxGeometry y="50" width="160" height="70" as="geometry" />
        </mxCell>
      </root>
    </mxGraphModel>
  </diagram>
</mxfile>
